<?xml version="1.0" encoding="UTF-8" standalone="no"?>
<svg
   xmlns:dc="http://purl.org/dc/elements/1.1/"
   xmlns:cc="http://creativecommons.org/ns#"
   xmlns:rdf="http://www.w3.org/1999/02/22-rdf-syntax-ns#"
   xmlns:svg="http://www.w3.org/2000/svg"
   xmlns="http://www.w3.org/2000/svg"
   viewBox="0 0 522.66669 384"
   height="384"
   width="522.66669"
   xml:space="preserve"
   id="svg36391"
   version="1.1"><metadata
     id="metadata36397"><rdf:RDF><cc:Work
         rdf:about=""><dc:format>image/svg+xml</dc:format><dc:type
           rdf:resource="http://purl.org/dc/dcmitype/StillImage" /><dc:title></dc:title></cc:Work></rdf:RDF></metadata><defs
     id="defs36395" /><g
     transform="matrix(1.3333333,0,0,-1.3333333,0,384)"
     id="g36399"><g
       transform="scale(0.1)"
       id="g36401"><path
         id="path36403"
         style="fill:#ffffff;fill-opacity:1;fill-rule:nonzero;stroke:none"
         d="m 351.25,278.16 h 3255 v 2572.5 h -3255 z" /><path
         id="path36405"
         style="fill:none;stroke:#dfdfdf;stroke-width:5.00250006;stroke-linecap:butt;stroke-linejoin:round;stroke-miterlimit:10;stroke-dasharray:none;stroke-opacity:1"
         d="m 351.25,278.16 v 2572.5" /><path
         id="path36407"
         style="fill:none;stroke:#dfdfdf;stroke-width:5.00250006;stroke-linecap:butt;stroke-linejoin:round;stroke-miterlimit:10;stroke-dasharray:none;stroke-opacity:1"
         d="m 893.75,278.16 v 2572.5" /><path
         id="path36409"
         style="fill:none;stroke:#dfdfdf;stroke-width:5.00250006;stroke-linecap:butt;stroke-linejoin:round;stroke-miterlimit:10;stroke-dasharray:none;stroke-opacity:1"
         d="m 1436.25,278.16 v 2572.5" /><path
         id="path36411"
         style="fill:none;stroke:#dfdfdf;stroke-width:5.00250006;stroke-linecap:butt;stroke-linejoin:round;stroke-miterlimit:10;stroke-dasharray:none;stroke-opacity:1"
         d="m 1978.75,278.16 v 2572.5" /><path
         id="path36413"
         style="fill:none;stroke:#dfdfdf;stroke-width:5.00250006;stroke-linecap:butt;stroke-linejoin:round;stroke-miterlimit:10;stroke-dasharray:none;stroke-opacity:1"
         d="m 2521.25,278.16 v 2572.5" /><path
         id="path36415"
         style="fill:none;stroke:#dfdfdf;stroke-width:5.00250006;stroke-linecap:butt;stroke-linejoin:round;stroke-miterlimit:10;stroke-dasharray:none;stroke-opacity:1"
         d="m 3063.75,278.16 v 2572.5" /><path
         id="path36417"
         style="fill:none;stroke:#dfdfdf;stroke-width:5.00250006;stroke-linecap:butt;stroke-linejoin:round;stroke-miterlimit:10;stroke-dasharray:none;stroke-opacity:1"
         d="m 3606.25,278.16 v 2572.5" /><path
         id="path36419"
         style="fill:none;stroke:#bfdcef;stroke-width:5.00250006;stroke-linecap:butt;stroke-linejoin:bevel;stroke-miterlimit:10;stroke-dasharray:7.5, 22.5;stroke-dashoffset:0;stroke-opacity:1"
         d="m 3606.25,541.871 h -3255" /><path
         id="path36421"
         style="fill:none;stroke:#bfdcef;stroke-width:5.00250006;stroke-linecap:butt;stroke-linejoin:bevel;stroke-miterlimit:10;stroke-dasharray:7.5, 22.5;stroke-dashoffset:0;stroke-opacity:1"
         d="m 3606.25,677.699 h -3255" /><path
         id="path36423"
         style="fill:none;stroke:#bfdcef;stroke-width:5.00250006;stroke-linecap:butt;stroke-linejoin:bevel;stroke-miterlimit:10;stroke-dasharray:7.5, 22.5;stroke-dashoffset:0;stroke-opacity:1"
         d="m 3606.25,813.48 h -3255" /><path
         id="path36425"
         style="fill:none;stroke:#bfdcef;stroke-width:5.00250006;stroke-linecap:butt;stroke-linejoin:bevel;stroke-miterlimit:10;stroke-dasharray:7.5, 22.5;stroke-dashoffset:0;stroke-opacity:1"
         d="m 3606.25,949.262 h -3255" /><path
         id="path36427"
         style="fill:none;stroke:#bfdcef;stroke-width:5.00250006;stroke-linecap:butt;stroke-linejoin:bevel;stroke-miterlimit:10;stroke-dasharray:7.5, 22.5;stroke-dashoffset:0;stroke-opacity:1"
         d="m 3606.25,1220.86 h -3255" /><path
         id="path36429"
         style="fill:none;stroke:#bfdcef;stroke-width:5.00250006;stroke-linecap:butt;stroke-linejoin:bevel;stroke-miterlimit:10;stroke-dasharray:7.5, 22.5;stroke-dashoffset:0;stroke-opacity:1"
         d="m 3606.25,1356.64 h -3255" /><path
         id="path36431"
         style="fill:none;stroke:#bfdcef;stroke-width:5.00250006;stroke-linecap:butt;stroke-linejoin:bevel;stroke-miterlimit:10;stroke-dasharray:7.5, 22.5;stroke-dashoffset:0;stroke-opacity:1"
         d="m 3606.25,1492.46 h -3255" /><path
         id="path36433"
         style="fill:none;stroke:#bfdcef;stroke-width:5.00250006;stroke-linecap:butt;stroke-linejoin:bevel;stroke-miterlimit:10;stroke-dasharray:7.5, 22.5;stroke-dashoffset:0;stroke-opacity:1"
         d="m 3606.25,1628.24 h -3255" /><path
         id="path36435"
         style="fill:none;stroke:#bfdcef;stroke-width:5.00250006;stroke-linecap:butt;stroke-linejoin:bevel;stroke-miterlimit:10;stroke-dasharray:7.5, 22.5;stroke-dashoffset:0;stroke-opacity:1"
         d="m 3606.25,1899.8 h -3255" /><path
         id="path36437"
         style="fill:none;stroke:#bfdcef;stroke-width:5.00250006;stroke-linecap:butt;stroke-linejoin:bevel;stroke-miterlimit:10;stroke-dasharray:7.5, 22.5;stroke-dashoffset:0;stroke-opacity:1"
         d="m 3606.25,2035.62 h -3255" /><path
         id="path36439"
         style="fill:none;stroke:#bfdcef;stroke-width:5.00250006;stroke-linecap:butt;stroke-linejoin:bevel;stroke-miterlimit:10;stroke-dasharray:7.5, 22.5;stroke-dashoffset:0;stroke-opacity:1"
         d="m 3606.25,2171.41 h -3255" /><path
         id="path36441"
         style="fill:none;stroke:#bfdcef;stroke-width:5.00250006;stroke-linecap:butt;stroke-linejoin:bevel;stroke-miterlimit:10;stroke-dasharray:7.5, 22.5;stroke-dashoffset:0;stroke-opacity:1"
         d="m 3606.25,2307.19 h -3255" /><path
         id="path36443"
         style="fill:none;stroke:#bfdcef;stroke-width:5.00250006;stroke-linecap:butt;stroke-linejoin:bevel;stroke-miterlimit:10;stroke-dasharray:7.5, 22.5;stroke-dashoffset:0;stroke-opacity:1"
         d="m 3606.25,2578.79 h -3255" /><path
         id="path36445"
         style="fill:none;stroke:#bfdcef;stroke-width:5.00250006;stroke-linecap:butt;stroke-linejoin:bevel;stroke-miterlimit:10;stroke-dasharray:7.5, 22.5;stroke-dashoffset:0;stroke-opacity:1"
         d="m 3606.25,2714.57 h -3255" /><path
         id="path36447"
         style="fill:none;stroke:#bfdcef;stroke-width:5.00250006;stroke-linecap:butt;stroke-linejoin:bevel;stroke-miterlimit:10;stroke-dasharray:7.5, 22.5;stroke-dashoffset:0;stroke-opacity:1"
         d="m 3606.25,2850.39 h -3255" /><path
         id="path36449"
         style="fill:none;stroke:#d9eaf5;stroke-width:5.00250006;stroke-linecap:butt;stroke-linejoin:round;stroke-miterlimit:10;stroke-dasharray:none;stroke-opacity:1"
         d="m 3606.25,406.09 h -3255" /><path
         id="path36451"
         style="fill:none;stroke:#d9eaf5;stroke-width:5.00250006;stroke-linecap:butt;stroke-linejoin:round;stroke-miterlimit:10;stroke-dasharray:none;stroke-opacity:1"
         d="m 3606.25,1085.08 h -3255" /><path
         id="path36453"
         style="fill:none;stroke:#d9eaf5;stroke-width:5.00250006;stroke-linecap:butt;stroke-linejoin:round;stroke-miterlimit:10;stroke-dasharray:none;stroke-opacity:1"
         d="m 3606.25,1764.02 h -3255" /><path
         id="path36455"
         style="fill:none;stroke:#d9eaf5;stroke-width:5.00250006;stroke-linecap:butt;stroke-linejoin:round;stroke-miterlimit:10;stroke-dasharray:none;stroke-opacity:1"
         d="m 3606.25,2442.97 h -3255" /><path
         id="path36457"
         style="fill:none;stroke:#262626;stroke-width:5.00250006;stroke-linecap:square;stroke-linejoin:round;stroke-miterlimit:10;stroke-dasharray:none;stroke-opacity:1"
         d="m 351.25,278.16 h 3255" /><path
         id="path36459"
         style="fill:none;stroke:#262626;stroke-width:5.00250006;stroke-linecap:square;stroke-linejoin:round;stroke-miterlimit:10;stroke-dasharray:none;stroke-opacity:1"
         d="m 351.25,2850.66 h 3255" /><path
         id="path36461"
         style="fill:none;stroke:#262626;stroke-width:5.00250006;stroke-linecap:square;stroke-linejoin:round;stroke-miterlimit:10;stroke-dasharray:none;stroke-opacity:1"
         d="m 351.25,278.16 v 32.539" /><path
         id="path36463"
         style="fill:none;stroke:#262626;stroke-width:5.00250006;stroke-linecap:square;stroke-linejoin:round;stroke-miterlimit:10;stroke-dasharray:none;stroke-opacity:1"
         d="m 893.75,278.16 v 32.539" /><path
         id="path36465"
         style="fill:none;stroke:#262626;stroke-width:5.00250006;stroke-linecap:square;stroke-linejoin:round;stroke-miterlimit:10;stroke-dasharray:none;stroke-opacity:1"
         d="m 1436.25,278.16 v 32.539" /><path
         id="path36467"
         style="fill:none;stroke:#262626;stroke-width:5.00250006;stroke-linecap:square;stroke-linejoin:round;stroke-miterlimit:10;stroke-dasharray:none;stroke-opacity:1"
         d="m 1978.75,278.16 v 32.539" /><path
         id="path36469"
         style="fill:none;stroke:#262626;stroke-width:5.00250006;stroke-linecap:square;stroke-linejoin:round;stroke-miterlimit:10;stroke-dasharray:none;stroke-opacity:1"
         d="m 2521.25,278.16 v 32.539" /><path
         id="path36471"
         style="fill:none;stroke:#262626;stroke-width:5.00250006;stroke-linecap:square;stroke-linejoin:round;stroke-miterlimit:10;stroke-dasharray:none;stroke-opacity:1"
         d="m 3063.75,278.16 v 32.539" /><path
         id="path36473"
         style="fill:none;stroke:#262626;stroke-width:5.00250006;stroke-linecap:square;stroke-linejoin:round;stroke-miterlimit:10;stroke-dasharray:none;stroke-opacity:1"
         d="m 3606.25,278.16 v 32.539" /><path
         id="path36475"
         style="fill:none;stroke:#262626;stroke-width:5.00250006;stroke-linecap:square;stroke-linejoin:round;stroke-miterlimit:10;stroke-dasharray:none;stroke-opacity:1"
         d="m 351.25,2850.66 v -32.57" /><path
         id="path36477"
         style="fill:none;stroke:#262626;stroke-width:5.00250006;stroke-linecap:square;stroke-linejoin:round;stroke-miterlimit:10;stroke-dasharray:none;stroke-opacity:1"
         d="m 893.75,2850.66 v -32.57" /><path
         id="path36479"
         style="fill:none;stroke:#262626;stroke-width:5.00250006;stroke-linecap:square;stroke-linejoin:round;stroke-miterlimit:10;stroke-dasharray:none;stroke-opacity:1"
         d="m 1436.25,2850.66 v -32.57" /><path
         id="path36481"
         style="fill:none;stroke:#262626;stroke-width:5.00250006;stroke-linecap:square;stroke-linejoin:round;stroke-miterlimit:10;stroke-dasharray:none;stroke-opacity:1"
         d="m 1978.75,2850.66 v -32.57" /><path
         id="path36483"
         style="fill:none;stroke:#262626;stroke-width:5.00250006;stroke-linecap:square;stroke-linejoin:round;stroke-miterlimit:10;stroke-dasharray:none;stroke-opacity:1"
         d="m 2521.25,2850.66 v -32.57" /><path
         id="path36485"
         style="fill:none;stroke:#262626;stroke-width:5.00250006;stroke-linecap:square;stroke-linejoin:round;stroke-miterlimit:10;stroke-dasharray:none;stroke-opacity:1"
         d="m 3063.75,2850.66 v -32.57" /><path
         id="path36487"
         style="fill:none;stroke:#262626;stroke-width:5.00250006;stroke-linecap:square;stroke-linejoin:round;stroke-miterlimit:10;stroke-dasharray:none;stroke-opacity:1"
         d="m 3606.25,2850.66 v -32.57" /><g
         transform="scale(10)"
         id="g36489"><text
           id="text36493"
           style="font-variant:normal;font-weight:normal;font-size:9.99975014px;font-family:Arial;-inkscape-font-specification:ArialMT;writing-mode:lr-tb;fill:#262626;fill-opacity:1;fill-rule:nonzero;stroke:none"
           transform="matrix(1,0,0,-1,32.1242,13.3148)"><tspan
             id="tspan36491"
             y="0"
             x="0 51.618809 57.178669 105.86736 111.42722 160.1174 165.67726 214.36594 219.9258 265.61487 271.17471 276.73459 319.85681 325.41666 330.97653">020406080100120</tspan></text>
<text
           id="text36497"
           style="font-variant:normal;font-weight:normal;font-size:11.00020027px;font-family:Arial;-inkscape-font-specification:ArialMT;writing-mode:lr-tb;fill:#262626;fill-opacity:1;fill-rule:nonzero;stroke:none"
           transform="matrix(1,0,0,-1,185.4992,0.3148)"><tspan
             id="tspan36495"
             y="0"
             x="0 6.7211223 9.163167 18.326334">Time</tspan></text>
</g><path
         id="path36499"
         style="fill:none;stroke:#0072bd;stroke-width:5.00250006;stroke-linecap:square;stroke-linejoin:round;stroke-miterlimit:10;stroke-dasharray:none;stroke-opacity:1"
         d="m 351.25,278.16 v 2572.5" /><path
         id="path36501"
         style="fill:none;stroke:#0072bd;stroke-width:5.00250006;stroke-linecap:square;stroke-linejoin:round;stroke-miterlimit:10;stroke-dasharray:none;stroke-opacity:1"
         d="m 351.25,406.09 h 32.539" /><path
         id="path36503"
         style="fill:none;stroke:#0072bd;stroke-width:5.00250006;stroke-linecap:square;stroke-linejoin:round;stroke-miterlimit:10;stroke-dasharray:none;stroke-opacity:1"
         d="m 351.25,1085.08 h 32.539" /><path
         id="path36505"
         style="fill:none;stroke:#0072bd;stroke-width:5.00250006;stroke-linecap:square;stroke-linejoin:round;stroke-miterlimit:10;stroke-dasharray:none;stroke-opacity:1"
         d="m 351.25,1764.02 h 32.539" /><path
         id="path36507"
         style="fill:none;stroke:#0072bd;stroke-width:5.00250006;stroke-linecap:square;stroke-linejoin:round;stroke-miterlimit:10;stroke-dasharray:none;stroke-opacity:1"
         d="m 351.25,2442.97 h 32.539" /><path
         id="path36509"
         style="fill:none;stroke:#0072bd;stroke-width:5.00250006;stroke-linecap:square;stroke-linejoin:round;stroke-miterlimit:10;stroke-dasharray:none;stroke-opacity:1"
         d="M 351.25,406.09 H 367.5" /><path
         id="path36511"
         style="fill:none;stroke:#0072bd;stroke-width:5.00250006;stroke-linecap:square;stroke-linejoin:round;stroke-miterlimit:10;stroke-dasharray:none;stroke-opacity:1"
         d="M 351.25,541.871 H 367.5" /><path
         id="path36513"
         style="fill:none;stroke:#0072bd;stroke-width:5.00250006;stroke-linecap:square;stroke-linejoin:round;stroke-miterlimit:10;stroke-dasharray:none;stroke-opacity:1"
         d="M 351.25,677.699 H 367.5" /><path
         id="path36515"
         style="fill:none;stroke:#0072bd;stroke-width:5.00250006;stroke-linecap:square;stroke-linejoin:round;stroke-miterlimit:10;stroke-dasharray:none;stroke-opacity:1"
         d="M 351.25,813.48 H 367.5" /><path
         id="path36517"
         style="fill:none;stroke:#0072bd;stroke-width:5.00250006;stroke-linecap:square;stroke-linejoin:round;stroke-miterlimit:10;stroke-dasharray:none;stroke-opacity:1"
         d="M 351.25,949.262 H 367.5" /><path
         id="path36519"
         style="fill:none;stroke:#0072bd;stroke-width:5.00250006;stroke-linecap:square;stroke-linejoin:round;stroke-miterlimit:10;stroke-dasharray:none;stroke-opacity:1"
         d="M 351.25,1085.08 H 367.5" /><path
         id="path36521"
         style="fill:none;stroke:#0072bd;stroke-width:5.00250006;stroke-linecap:square;stroke-linejoin:round;stroke-miterlimit:10;stroke-dasharray:none;stroke-opacity:1"
         d="M 351.25,1220.86 H 367.5" /><path
         id="path36523"
         style="fill:none;stroke:#0072bd;stroke-width:5.00250006;stroke-linecap:square;stroke-linejoin:round;stroke-miterlimit:10;stroke-dasharray:none;stroke-opacity:1"
         d="M 351.25,1356.64 H 367.5" /><path
         id="path36525"
         style="fill:none;stroke:#0072bd;stroke-width:5.00250006;stroke-linecap:square;stroke-linejoin:round;stroke-miterlimit:10;stroke-dasharray:none;stroke-opacity:1"
         d="M 351.25,1492.46 H 367.5" /><path
         id="path36527"
         style="fill:none;stroke:#0072bd;stroke-width:5.00250006;stroke-linecap:square;stroke-linejoin:round;stroke-miterlimit:10;stroke-dasharray:none;stroke-opacity:1"
         d="M 351.25,1628.24 H 367.5" /><path
         id="path36529"
         style="fill:none;stroke:#0072bd;stroke-width:5.00250006;stroke-linecap:square;stroke-linejoin:round;stroke-miterlimit:10;stroke-dasharray:none;stroke-opacity:1"
         d="M 351.25,1764.02 H 367.5" /><path
         id="path36531"
         style="fill:none;stroke:#0072bd;stroke-width:5.00250006;stroke-linecap:square;stroke-linejoin:round;stroke-miterlimit:10;stroke-dasharray:none;stroke-opacity:1"
         d="M 351.25,1899.8 H 367.5" /><path
         id="path36533"
         style="fill:none;stroke:#0072bd;stroke-width:5.00250006;stroke-linecap:square;stroke-linejoin:round;stroke-miterlimit:10;stroke-dasharray:none;stroke-opacity:1"
         d="M 351.25,2035.62 H 367.5" /><path
         id="path36535"
         style="fill:none;stroke:#0072bd;stroke-width:5.00250006;stroke-linecap:square;stroke-linejoin:round;stroke-miterlimit:10;stroke-dasharray:none;stroke-opacity:1"
         d="M 351.25,2171.41 H 367.5" /><path
         id="path36537"
         style="fill:none;stroke:#0072bd;stroke-width:5.00250006;stroke-linecap:square;stroke-linejoin:round;stroke-miterlimit:10;stroke-dasharray:none;stroke-opacity:1"
         d="M 351.25,2307.19 H 367.5" /><path
         id="path36539"
         style="fill:none;stroke:#0072bd;stroke-width:5.00250006;stroke-linecap:square;stroke-linejoin:round;stroke-miterlimit:10;stroke-dasharray:none;stroke-opacity:1"
         d="M 351.25,2442.97 H 367.5" /><path
         id="path36541"
         style="fill:none;stroke:#0072bd;stroke-width:5.00250006;stroke-linecap:square;stroke-linejoin:round;stroke-miterlimit:10;stroke-dasharray:none;stroke-opacity:1"
         d="M 351.25,2578.79 H 367.5" /><path
         id="path36543"
         style="fill:none;stroke:#0072bd;stroke-width:5.00250006;stroke-linecap:square;stroke-linejoin:round;stroke-miterlimit:10;stroke-dasharray:none;stroke-opacity:1"
         d="M 351.25,2714.57 H 367.5" /><path
         id="path36545"
         style="fill:none;stroke:#0072bd;stroke-width:5.00250006;stroke-linecap:square;stroke-linejoin:round;stroke-miterlimit:10;stroke-dasharray:none;stroke-opacity:1"
         d="M 351.25,2850.39 H 367.5" /><g
         transform="scale(10)"
         id="g36547"><text
           id="text36551"
           style="font-variant:normal;font-weight:normal;font-size:9.99975014px;font-family:Arial;-inkscape-font-specification:ArialMT;writing-mode:lr-tb;fill:#0072bd;fill-opacity:1;fill-rule:nonzero;stroke:none"
           transform="matrix(1,0,0,-1,8.12422,35.3148)"><tspan
             id="tspan36549"
             y="0"
             x="0 5.5598612">10</tspan></text>
<text
           id="text36555"
           style="font-variant:normal;font-weight:normal;font-size:8.00024986px;font-family:Arial;-inkscape-font-specification:ArialMT;writing-mode:lr-tb;fill:#0072bd;fill-opacity:1;fill-rule:nonzero;stroke:none"
           transform="matrix(1,0,0,-1,19.37422,39.8148)"><tspan
             id="tspan36553"
             y="0"
             x="0 2.6640832 7.1122222">-15</tspan></text>
<text
           id="text36559"
           style="font-variant:normal;font-weight:normal;font-size:9.99975014px;font-family:Arial;-inkscape-font-specification:ArialMT;writing-mode:lr-tb;fill:#0072bd;fill-opacity:1;fill-rule:nonzero;stroke:none"
           transform="matrix(1,0,0,-1,8.12422,103.5644)"><tspan
             id="tspan36557"
             y="0"
             x="0 5.5598612">10</tspan></text>
<text
           id="text36563"
           style="font-variant:normal;font-weight:normal;font-size:8.00024986px;font-family:Arial;-inkscape-font-specification:ArialMT;writing-mode:lr-tb;fill:#0072bd;fill-opacity:1;fill-rule:nonzero;stroke:none"
           transform="matrix(1,0,0,-1,19.37422,108.0644)"><tspan
             id="tspan36561"
             y="0"
             x="0 2.6640832 7.1122222">-10</tspan></text>
<text
           id="text36567"
           style="font-variant:normal;font-weight:normal;font-size:9.99975014px;font-family:Arial;-inkscape-font-specification:ArialMT;writing-mode:lr-tb;fill:#0072bd;fill-opacity:1;fill-rule:nonzero;stroke:none"
           transform="matrix(1,0,0,-1,12.62422,171.0644)"><tspan
             id="tspan36565"
             y="0"
             x="0 5.5598612">10</tspan></text>
<text
           id="text36571"
           style="font-variant:normal;font-weight:normal;font-size:8.00024986px;font-family:Arial;-inkscape-font-specification:ArialMT;writing-mode:lr-tb;fill:#0072bd;fill-opacity:1;fill-rule:nonzero;stroke:none"
           transform="matrix(1,0,0,-1,23.87422,175.5644)"><tspan
             id="tspan36569"
             y="0"
             x="0 2.6640832">-5</tspan></text>
<text
           id="text36575"
           style="font-variant:normal;font-weight:normal;font-size:9.99975014px;font-family:Arial;-inkscape-font-specification:ArialMT;writing-mode:lr-tb;fill:#0072bd;fill-opacity:1;fill-rule:nonzero;stroke:none"
           transform="matrix(1,0,0,-1,15.62422,239.3144)"><tspan
             id="tspan36573"
             y="0"
             x="0 5.5598612">10</tspan></text>
<text
           id="text36579"
           style="font-variant:normal;font-weight:normal;font-size:8.00024986px;font-family:Arial;-inkscape-font-specification:ArialMT;writing-mode:lr-tb;fill:#0072bd;fill-opacity:1;fill-rule:nonzero;stroke:none"
           transform="matrix(1,0,0,-1,26.87422,243.8144)"><tspan
             id="tspan36577"
             y="0"
             x="0">0</tspan></text>
<text
           id="text36583"
           style="font-variant:normal;font-weight:normal;font-size:11.00020027px;font-family:Arial;-inkscape-font-specification:ArialMT;writing-mode:lr-tb;fill:#0072bd;fill-opacity:1;fill-rule:nonzero;stroke:none"
           transform="matrix(0,1,1,0,7.87422,124.189)"><tspan
             id="tspan36581"
             y="0"
             x="0 6.1161113 12.232223 18.348333 21.406389 29.348534 31.790579 37.290676 40.348732 46.464844 52.580956 58.081055">Log Distance</tspan></text>
</g><path
         id="path36585"
         style="fill:none;stroke:#d95319;stroke-width:5.00250006;stroke-linecap:square;stroke-linejoin:round;stroke-miterlimit:10;stroke-dasharray:none;stroke-opacity:1"
         d="m 3606.25,278.16 v 2572.5" /><path
         id="path36587"
         style="fill:none;stroke:#d95319;stroke-width:5.00250006;stroke-linecap:square;stroke-linejoin:round;stroke-miterlimit:10;stroke-dasharray:none;stroke-opacity:1"
         d="m 3606.25,278.16 h -32.54" /><path
         id="path36589"
         style="fill:none;stroke:#d95319;stroke-width:5.00250006;stroke-linecap:square;stroke-linejoin:round;stroke-miterlimit:10;stroke-dasharray:none;stroke-opacity:1"
         d="m 3606.25,535.391 h -32.54" /><path
         id="path36591"
         style="fill:none;stroke:#d95319;stroke-width:5.00250006;stroke-linecap:square;stroke-linejoin:round;stroke-miterlimit:10;stroke-dasharray:none;stroke-opacity:1"
         d="m 3606.25,792.66 h -32.54" /><path
         id="path36593"
         style="fill:none;stroke:#d95319;stroke-width:5.00250006;stroke-linecap:square;stroke-linejoin:round;stroke-miterlimit:10;stroke-dasharray:none;stroke-opacity:1"
         d="m 3606.25,1049.88 h -32.54" /><path
         id="path36595"
         style="fill:none;stroke:#d95319;stroke-width:5.00250006;stroke-linecap:square;stroke-linejoin:round;stroke-miterlimit:10;stroke-dasharray:none;stroke-opacity:1"
         d="m 3606.25,1307.15 h -32.54" /><path
         id="path36597"
         style="fill:none;stroke:#d95319;stroke-width:5.00250006;stroke-linecap:square;stroke-linejoin:round;stroke-miterlimit:10;stroke-dasharray:none;stroke-opacity:1"
         d="m 3606.25,1564.41 h -32.54" /><path
         id="path36599"
         style="fill:none;stroke:#d95319;stroke-width:5.00250006;stroke-linecap:square;stroke-linejoin:round;stroke-miterlimit:10;stroke-dasharray:none;stroke-opacity:1"
         d="m 3606.25,1821.64 h -32.54" /><path
         id="path36601"
         style="fill:none;stroke:#d95319;stroke-width:5.00250006;stroke-linecap:square;stroke-linejoin:round;stroke-miterlimit:10;stroke-dasharray:none;stroke-opacity:1"
         d="m 3606.25,2078.91 h -32.54" /><path
         id="path36603"
         style="fill:none;stroke:#d95319;stroke-width:5.00250006;stroke-linecap:square;stroke-linejoin:round;stroke-miterlimit:10;stroke-dasharray:none;stroke-opacity:1"
         d="m 3606.25,2336.13 h -32.54" /><path
         id="path36605"
         style="fill:none;stroke:#d95319;stroke-width:5.00250006;stroke-linecap:square;stroke-linejoin:round;stroke-miterlimit:10;stroke-dasharray:none;stroke-opacity:1"
         d="m 3606.25,2593.4 h -32.54" /><path
         id="path36607"
         style="fill:none;stroke:#d95319;stroke-width:5.00250006;stroke-linecap:square;stroke-linejoin:round;stroke-miterlimit:10;stroke-dasharray:none;stroke-opacity:1"
         d="m 3606.25,2850.66 h -32.54" /><g
         transform="scale(10)"
         id="g36609"><text
           id="text36633"
           style="font-variant:normal;font-weight:normal;font-size:9.99975014px;font-family:Arial;-inkscape-font-specification:ArialMT;writing-mode:lr-tb;fill:#d95319;fill-opacity:1;fill-rule:nonzero;stroke:none"
           transform="matrix(1,0,0,-1,364.624,23.6898)"><tspan
             id="tspan36611"
             y="0"
             x="0">0</tspan><tspan
             id="tspan36613"
             y="-25.7246"
             x="0 5.5598612 8.3397913">0.5</tspan><tspan
             id="tspan36615"
             y="-51.4496"
             x="0">1</tspan><tspan
             id="tspan36617"
             y="-77.174599"
             x="0 5.5598612 8.3397913">1.5</tspan><tspan
             id="tspan36619"
             y="-102.8996"
             x="0">2</tspan><tspan
             id="tspan36621"
             y="-128.6246"
             x="0 5.5598612 8.3397913">2.5</tspan><tspan
             id="tspan36623"
             y="-154.34959"
             x="0">3</tspan><tspan
             id="tspan36625"
             y="-180.0746"
             x="0 5.5598612 8.3397913">3.5</tspan><tspan
             id="tspan36627"
             y="-205.79961"
             x="0">4</tspan><tspan
             id="tspan36629"
             y="-231.5246"
             x="0 5.5598612 8.3397913">4.5</tspan><tspan
             id="tspan36631"
             y="-257.2496"
             x="0">5</tspan></text>
<text
           id="text36637"
           style="font-variant:normal;font-weight:normal;font-size:11.00020027px;font-family:Arial;-inkscape-font-specification:ArialMT;writing-mode:lr-tb;fill:#d95319;fill-opacity:1;fill-rule:nonzero;stroke:none"
           transform="matrix(0,1,1,0,391.624,134.689)"><tspan
             id="tspan36635"
             y="0"
             x="0 7.9421444 10.384189 15.884289 18.942345 25.058456 31.174566 36.674667">Distance</tspan></text>
</g><path
         id="path36639"
         style="fill:none;stroke:#0072bd;stroke-width:5.00250006;stroke-linecap:butt;stroke-linejoin:round;stroke-miterlimit:10;stroke-dasharray:none;stroke-opacity:1"
         d="m 405.469,278.16 27.152,47.192 27.109,41.058 27.149,37.891 27.101,39.25 27.149,30.508 27.109,37.972 27.114,32.699 27.148,42.258 27.109,24.184 27.153,36.949 27.109,34.418 27.109,32.93 27.149,40 27.101,14.922 27.11,71.129 27.148,93.25 27.153,86.6 27.109,39.22 27.109,34.72 27.153,34.49 27.109,34.77 27.109,35.08 27.15,34.53 27.1,34.49 27.15,34.49 27.11,34.5 27.11,34.45 27.15,34.49 27.11,34.49 27.15,34.5 54.22,68.98 27.15,34.45 27.1,34.5 27.15,34.49 27.11,34.49 27.15,34.49 27.11,34.49 27.11,34.46 27.15,34.49 54.22,68.98 27.15,34.46 54.21,68.98 54.3,68.99 27.11,34.45 27.11,34.49 27.15,34.49 54.22,69.07 27.15,34.72 27.1,35.16 27.15,36.87 27.11,42.23 27.11,62.11 27.15,25.23 27.11,12.07 27.15,7.78 27.11,5.7 27.11,4.41 27.15,3.56 27.1,2.97 27.15,2.54 27.11,2.18 27.15,1.92 27.11,1.72 27.11,1.52 27.15,1.37 27.11,1.21 27.11,1.13 27.15,1.02 27.1,0.97 27.11,0.86 27.15,0.82 27.15,0.71 27.11,0.7 27.11,0.66 27.15,0.59 54.22,1.09 27.15,0.47 27.1,0.47 27.15,0.43 27.11,0.43 27.11,0.35 27.15,0.39 27.11,0.35 27.15,0.32 27.11,0.31 27.11,0.27 27.15,0.28 27.1,0.27 27.15,0.23 27.11,0.24 27.15,0.23 54.22,0.39" /><path
         id="path36641"
         style="fill:none;stroke:#d95319;stroke-width:5.00250006;stroke-linecap:butt;stroke-linejoin:round;stroke-miterlimit:10;stroke-dasharray:none;stroke-opacity:1"
         d="M 378.359,278.16 H 1517.62 l 27.11,0.039 h 27.15 l 27.1,0.082 27.11,0.117 27.15,0.192 27.15,0.359 27.11,0.621 27.11,1.168 27.15,2.032 27.11,3.71 27.11,6.61 27.15,11.992 27.1,21.988 27.15,42.461 27.11,95.699 27.11,349.141 27.15,286.179 27.11,186.91 27.15,142.58 27.11,116.29 27.11,98.47 27.15,85.32 27.1,75.19 27.15,67.07 27.11,60.39 27.15,54.81 27.11,50.04 27.11,45.93 27.15,42.31 27.11,39.14 27.11,36.33 27.15,33.79 27.1,31.56 27.11,29.49 27.15,27.62 27.15,25.94 27.11,24.33 27.11,22.97 27.15,21.6 27.11,20.39 27.11,19.3 27.15,18.2 27.1,17.27 27.15,16.33 27.11,15.5 27.11,14.69 27.15,13.99 27.11,13.24 27.15,12.62 27.11,11.99 27.11,11.4 27.15,10.86 27.1,10.36 27.15,9.84 27.11,9.37 27.15,8.99 27.11,8.55 27.11,8.13" /></g></g></svg>