<?xml version="1.0" encoding="UTF-8" standalone="no"?>
<svg
   xmlns:dc="http://purl.org/dc/elements/1.1/"
   xmlns:cc="http://creativecommons.org/ns#"
   xmlns:rdf="http://www.w3.org/1999/02/22-rdf-syntax-ns#"
   xmlns:svg="http://www.w3.org/2000/svg"
   xmlns="http://www.w3.org/2000/svg"
   viewBox="0 0 480 382.66666"
   height="382.66666"
   width="480"
   xml:space="preserve"
   id="svg815"
   version="1.1"><metadata
     id="metadata821"><rdf:RDF><cc:Work
         rdf:about=""><dc:format>image/svg+xml</dc:format><dc:type
           rdf:resource="http://purl.org/dc/dcmitype/StillImage" /><dc:title></dc:title></cc:Work></rdf:RDF></metadata><defs
     id="defs819" /><g
     transform="matrix(1.3333333,0,0,-1.3333333,0,382.66667)"
     id="g823"><g
       transform="scale(0.1)"
       id="g825"><path
         id="path827"
         style="fill:#ffffff;fill-opacity:1;fill-rule:nonzero;stroke:none"
         d="m 270.82,268.16 h 3255 v 2572.5 h -3255 z" /><path
         id="path829"
         style="fill:none;stroke:#dfdfdf;stroke-width:5.00250006;stroke-linecap:butt;stroke-linejoin:round;stroke-miterlimit:10;stroke-dasharray:none;stroke-opacity:1"
         d="m 270.82,268.16 v 2572.5" /><path
         id="path831"
         style="fill:none;stroke:#dfdfdf;stroke-width:5.00250006;stroke-linecap:butt;stroke-linejoin:round;stroke-miterlimit:10;stroke-dasharray:none;stroke-opacity:1"
         d="m 735.82,268.16 v 2572.5" /><path
         id="path833"
         style="fill:none;stroke:#dfdfdf;stroke-width:5.00250006;stroke-linecap:butt;stroke-linejoin:round;stroke-miterlimit:10;stroke-dasharray:none;stroke-opacity:1"
         d="m 1200.82,268.16 v 2572.5" /><path
         id="path835"
         style="fill:none;stroke:#dfdfdf;stroke-width:5.00250006;stroke-linecap:butt;stroke-linejoin:round;stroke-miterlimit:10;stroke-dasharray:none;stroke-opacity:1"
         d="m 1665.82,268.16 v 2572.5" /><path
         id="path837"
         style="fill:none;stroke:#dfdfdf;stroke-width:5.00250006;stroke-linecap:butt;stroke-linejoin:round;stroke-miterlimit:10;stroke-dasharray:none;stroke-opacity:1"
         d="m 2130.82,268.16 v 2572.5" /><path
         id="path839"
         style="fill:none;stroke:#dfdfdf;stroke-width:5.00250006;stroke-linecap:butt;stroke-linejoin:round;stroke-miterlimit:10;stroke-dasharray:none;stroke-opacity:1"
         d="m 2595.82,268.16 v 2572.5" /><path
         id="path841"
         style="fill:none;stroke:#dfdfdf;stroke-width:5.00250006;stroke-linecap:butt;stroke-linejoin:round;stroke-miterlimit:10;stroke-dasharray:none;stroke-opacity:1"
         d="m 3060.82,268.16 v 2572.5" /><path
         id="path843"
         style="fill:none;stroke:#dfdfdf;stroke-width:5.00250006;stroke-linecap:butt;stroke-linejoin:round;stroke-miterlimit:10;stroke-dasharray:none;stroke-opacity:1"
         d="m 3525.82,268.16 v 2572.5" /><path
         id="path845"
         style="fill:none;stroke:#dfdfdf;stroke-width:5.00250006;stroke-linecap:butt;stroke-linejoin:round;stroke-miterlimit:10;stroke-dasharray:none;stroke-opacity:1"
         d="m 3525.82,268.16 h -3255" /><path
         id="path847"
         style="fill:none;stroke:#dfdfdf;stroke-width:5.00250006;stroke-linecap:butt;stroke-linejoin:round;stroke-miterlimit:10;stroke-dasharray:none;stroke-opacity:1"
         d="m 3525.82,553.98 h -3255" /><path
         id="path849"
         style="fill:none;stroke:#dfdfdf;stroke-width:5.00250006;stroke-linecap:butt;stroke-linejoin:round;stroke-miterlimit:10;stroke-dasharray:none;stroke-opacity:1"
         d="m 3525.82,839.801 h -3255" /><path
         id="path851"
         style="fill:none;stroke:#dfdfdf;stroke-width:5.00250006;stroke-linecap:butt;stroke-linejoin:round;stroke-miterlimit:10;stroke-dasharray:none;stroke-opacity:1"
         d="m 3525.82,1125.66 h -3255" /><path
         id="path853"
         style="fill:none;stroke:#dfdfdf;stroke-width:5.00250006;stroke-linecap:butt;stroke-linejoin:round;stroke-miterlimit:10;stroke-dasharray:none;stroke-opacity:1"
         d="m 3525.82,1411.48 h -3255" /><path
         id="path855"
         style="fill:none;stroke:#dfdfdf;stroke-width:5.00250006;stroke-linecap:butt;stroke-linejoin:round;stroke-miterlimit:10;stroke-dasharray:none;stroke-opacity:1"
         d="m 3525.82,1697.3 h -3255" /><path
         id="path857"
         style="fill:none;stroke:#dfdfdf;stroke-width:5.00250006;stroke-linecap:butt;stroke-linejoin:round;stroke-miterlimit:10;stroke-dasharray:none;stroke-opacity:1"
         d="m 3525.82,1983.16 h -3255" /><path
         id="path859"
         style="fill:none;stroke:#dfdfdf;stroke-width:5.00250006;stroke-linecap:butt;stroke-linejoin:round;stroke-miterlimit:10;stroke-dasharray:none;stroke-opacity:1"
         d="m 3525.82,2268.98 h -3255" /><path
         id="path861"
         style="fill:none;stroke:#dfdfdf;stroke-width:5.00250006;stroke-linecap:butt;stroke-linejoin:round;stroke-miterlimit:10;stroke-dasharray:none;stroke-opacity:1"
         d="m 3525.82,2554.8 h -3255" /><path
         id="path863"
         style="fill:none;stroke:#dfdfdf;stroke-width:5.00250006;stroke-linecap:butt;stroke-linejoin:round;stroke-miterlimit:10;stroke-dasharray:none;stroke-opacity:1"
         d="m 3525.82,2840.66 h -3255" /><path
         id="path865"
         style="fill:none;stroke:#262626;stroke-width:5.00250006;stroke-linecap:square;stroke-linejoin:round;stroke-miterlimit:10;stroke-dasharray:none;stroke-opacity:1"
         d="m 270.82,268.16 h 3255" /><path
         id="path867"
         style="fill:none;stroke:#262626;stroke-width:5.00250006;stroke-linecap:square;stroke-linejoin:round;stroke-miterlimit:10;stroke-dasharray:none;stroke-opacity:1"
         d="m 270.82,2840.66 h 3255" /><path
         id="path869"
         style="fill:none;stroke:#262626;stroke-width:5.00250006;stroke-linecap:square;stroke-linejoin:round;stroke-miterlimit:10;stroke-dasharray:none;stroke-opacity:1"
         d="m 270.82,268.16 v 32.539" /><path
         id="path871"
         style="fill:none;stroke:#262626;stroke-width:5.00250006;stroke-linecap:square;stroke-linejoin:round;stroke-miterlimit:10;stroke-dasharray:none;stroke-opacity:1"
         d="m 735.82,268.16 v 32.539" /><path
         id="path873"
         style="fill:none;stroke:#262626;stroke-width:5.00250006;stroke-linecap:square;stroke-linejoin:round;stroke-miterlimit:10;stroke-dasharray:none;stroke-opacity:1"
         d="m 1200.82,268.16 v 32.539" /><path
         id="path875"
         style="fill:none;stroke:#262626;stroke-width:5.00250006;stroke-linecap:square;stroke-linejoin:round;stroke-miterlimit:10;stroke-dasharray:none;stroke-opacity:1"
         d="m 1665.82,268.16 v 32.539" /><path
         id="path877"
         style="fill:none;stroke:#262626;stroke-width:5.00250006;stroke-linecap:square;stroke-linejoin:round;stroke-miterlimit:10;stroke-dasharray:none;stroke-opacity:1"
         d="m 2130.82,268.16 v 32.539" /><path
         id="path879"
         style="fill:none;stroke:#262626;stroke-width:5.00250006;stroke-linecap:square;stroke-linejoin:round;stroke-miterlimit:10;stroke-dasharray:none;stroke-opacity:1"
         d="m 2595.82,268.16 v 32.539" /><path
         id="path881"
         style="fill:none;stroke:#262626;stroke-width:5.00250006;stroke-linecap:square;stroke-linejoin:round;stroke-miterlimit:10;stroke-dasharray:none;stroke-opacity:1"
         d="m 3060.82,268.16 v 32.539" /><path
         id="path883"
         style="fill:none;stroke:#262626;stroke-width:5.00250006;stroke-linecap:square;stroke-linejoin:round;stroke-miterlimit:10;stroke-dasharray:none;stroke-opacity:1"
         d="m 3525.82,268.16 v 32.539" /><path
         id="path885"
         style="fill:none;stroke:#262626;stroke-width:5.00250006;stroke-linecap:square;stroke-linejoin:round;stroke-miterlimit:10;stroke-dasharray:none;stroke-opacity:1"
         d="m 270.82,2840.66 v -32.57" /><path
         id="path887"
         style="fill:none;stroke:#262626;stroke-width:5.00250006;stroke-linecap:square;stroke-linejoin:round;stroke-miterlimit:10;stroke-dasharray:none;stroke-opacity:1"
         d="m 735.82,2840.66 v -32.57" /><path
         id="path889"
         style="fill:none;stroke:#262626;stroke-width:5.00250006;stroke-linecap:square;stroke-linejoin:round;stroke-miterlimit:10;stroke-dasharray:none;stroke-opacity:1"
         d="m 1200.82,2840.66 v -32.57" /><path
         id="path891"
         style="fill:none;stroke:#262626;stroke-width:5.00250006;stroke-linecap:square;stroke-linejoin:round;stroke-miterlimit:10;stroke-dasharray:none;stroke-opacity:1"
         d="m 1665.82,2840.66 v -32.57" /><path
         id="path893"
         style="fill:none;stroke:#262626;stroke-width:5.00250006;stroke-linecap:square;stroke-linejoin:round;stroke-miterlimit:10;stroke-dasharray:none;stroke-opacity:1"
         d="m 2130.82,2840.66 v -32.57" /><path
         id="path895"
         style="fill:none;stroke:#262626;stroke-width:5.00250006;stroke-linecap:square;stroke-linejoin:round;stroke-miterlimit:10;stroke-dasharray:none;stroke-opacity:1"
         d="m 2595.82,2840.66 v -32.57" /><path
         id="path897"
         style="fill:none;stroke:#262626;stroke-width:5.00250006;stroke-linecap:square;stroke-linejoin:round;stroke-miterlimit:10;stroke-dasharray:none;stroke-opacity:1"
         d="m 3060.82,2840.66 v -32.57" /><path
         id="path899"
         style="fill:none;stroke:#262626;stroke-width:5.00250006;stroke-linecap:square;stroke-linejoin:round;stroke-miterlimit:10;stroke-dasharray:none;stroke-opacity:1"
         d="m 3525.82,2840.66 v -32.57" /><g
         transform="scale(10)"
         id="g901"><text
           id="text905"
           style="font-variant:normal;font-weight:normal;font-size:9.99975014px;font-family:Arial;-inkscape-font-specification:ArialMT;writing-mode:lr-tb;fill:#262626;fill-opacity:1;fill-rule:nonzero;stroke:none"
           transform="matrix(1,0,0,-1,19.9582,12.3148)"><tspan
             id="tspan903"
             y="0"
             x="0 5.5598612 8.3397913 46.499039 52.058899 54.838829 92.998077 98.557938 101.33787 139.49712 145.05698 147.8369 185.99455 191.55441 194.33434 232.49359 238.05345 240.83337 278.99261 284.55249 287.33243 325.49167 331.05151 333.83145">0.10.20.30.40.50.60.70.8</tspan></text>
<text
           id="text909"
           style="font-variant:normal;font-weight:normal;font-size:11.00020027px;font-family:Arial;-inkscape-font-specification:ArialMT;writing-mode:lr-tb;fill:#262626;fill-opacity:1;fill-rule:nonzero;stroke:none"
           transform="matrix(1,0,0,-1,186.8332,0.8148)"><tspan
             id="tspan907"
             y="0"
             x="0">J</tspan></text>
</g><path
         id="path911"
         style="fill:none;stroke:#262626;stroke-width:5.00250006;stroke-linecap:square;stroke-linejoin:round;stroke-miterlimit:10;stroke-dasharray:none;stroke-opacity:1"
         d="m 270.82,268.16 v 2572.5" /><path
         id="path913"
         style="fill:none;stroke:#262626;stroke-width:5.00250006;stroke-linecap:square;stroke-linejoin:round;stroke-miterlimit:10;stroke-dasharray:none;stroke-opacity:1"
         d="m 3525.82,268.16 v 2572.5" /><path
         id="path915"
         style="fill:none;stroke:#262626;stroke-width:5.00250006;stroke-linecap:square;stroke-linejoin:round;stroke-miterlimit:10;stroke-dasharray:none;stroke-opacity:1"
         d="m 270.82,268.16 h 32.578" /><path
         id="path917"
         style="fill:none;stroke:#262626;stroke-width:5.00250006;stroke-linecap:square;stroke-linejoin:round;stroke-miterlimit:10;stroke-dasharray:none;stroke-opacity:1"
         d="m 270.82,553.98 h 32.578" /><path
         id="path919"
         style="fill:none;stroke:#262626;stroke-width:5.00250006;stroke-linecap:square;stroke-linejoin:round;stroke-miterlimit:10;stroke-dasharray:none;stroke-opacity:1"
         d="m 270.82,839.801 h 32.578" /><path
         id="path921"
         style="fill:none;stroke:#262626;stroke-width:5.00250006;stroke-linecap:square;stroke-linejoin:round;stroke-miterlimit:10;stroke-dasharray:none;stroke-opacity:1"
         d="m 270.82,1125.66 h 32.578" /><path
         id="path923"
         style="fill:none;stroke:#262626;stroke-width:5.00250006;stroke-linecap:square;stroke-linejoin:round;stroke-miterlimit:10;stroke-dasharray:none;stroke-opacity:1"
         d="m 270.82,1411.48 h 32.578" /><path
         id="path925"
         style="fill:none;stroke:#262626;stroke-width:5.00250006;stroke-linecap:square;stroke-linejoin:round;stroke-miterlimit:10;stroke-dasharray:none;stroke-opacity:1"
         d="m 270.82,1697.3 h 32.578" /><path
         id="path927"
         style="fill:none;stroke:#262626;stroke-width:5.00250006;stroke-linecap:square;stroke-linejoin:round;stroke-miterlimit:10;stroke-dasharray:none;stroke-opacity:1"
         d="m 270.82,1983.16 h 32.578" /><path
         id="path929"
         style="fill:none;stroke:#262626;stroke-width:5.00250006;stroke-linecap:square;stroke-linejoin:round;stroke-miterlimit:10;stroke-dasharray:none;stroke-opacity:1"
         d="m 270.82,2268.98 h 32.578" /><path
         id="path931"
         style="fill:none;stroke:#262626;stroke-width:5.00250006;stroke-linecap:square;stroke-linejoin:round;stroke-miterlimit:10;stroke-dasharray:none;stroke-opacity:1"
         d="m 270.82,2554.8 h 32.578" /><path
         id="path933"
         style="fill:none;stroke:#262626;stroke-width:5.00250006;stroke-linecap:square;stroke-linejoin:round;stroke-miterlimit:10;stroke-dasharray:none;stroke-opacity:1"
         d="m 270.82,2840.66 h 32.578" /><path
         id="path935"
         style="fill:none;stroke:#262626;stroke-width:5.00250006;stroke-linecap:square;stroke-linejoin:round;stroke-miterlimit:10;stroke-dasharray:none;stroke-opacity:1"
         d="m 3525.82,268.16 h -32.54" /><path
         id="path937"
         style="fill:none;stroke:#262626;stroke-width:5.00250006;stroke-linecap:square;stroke-linejoin:round;stroke-miterlimit:10;stroke-dasharray:none;stroke-opacity:1"
         d="m 3525.82,553.98 h -32.54" /><path
         id="path939"
         style="fill:none;stroke:#262626;stroke-width:5.00250006;stroke-linecap:square;stroke-linejoin:round;stroke-miterlimit:10;stroke-dasharray:none;stroke-opacity:1"
         d="m 3525.82,839.801 h -32.54" /><path
         id="path941"
         style="fill:none;stroke:#262626;stroke-width:5.00250006;stroke-linecap:square;stroke-linejoin:round;stroke-miterlimit:10;stroke-dasharray:none;stroke-opacity:1"
         d="m 3525.82,1125.66 h -32.54" /><path
         id="path943"
         style="fill:none;stroke:#262626;stroke-width:5.00250006;stroke-linecap:square;stroke-linejoin:round;stroke-miterlimit:10;stroke-dasharray:none;stroke-opacity:1"
         d="m 3525.82,1411.48 h -32.54" /><path
         id="path945"
         style="fill:none;stroke:#262626;stroke-width:5.00250006;stroke-linecap:square;stroke-linejoin:round;stroke-miterlimit:10;stroke-dasharray:none;stroke-opacity:1"
         d="m 3525.82,1697.3 h -32.54" /><path
         id="path947"
         style="fill:none;stroke:#262626;stroke-width:5.00250006;stroke-linecap:square;stroke-linejoin:round;stroke-miterlimit:10;stroke-dasharray:none;stroke-opacity:1"
         d="m 3525.82,1983.16 h -32.54" /><path
         id="path949"
         style="fill:none;stroke:#262626;stroke-width:5.00250006;stroke-linecap:square;stroke-linejoin:round;stroke-miterlimit:10;stroke-dasharray:none;stroke-opacity:1"
         d="m 3525.82,2268.98 h -32.54" /><path
         id="path951"
         style="fill:none;stroke:#262626;stroke-width:5.00250006;stroke-linecap:square;stroke-linejoin:round;stroke-miterlimit:10;stroke-dasharray:none;stroke-opacity:1"
         d="m 3525.82,2554.8 h -32.54" /><path
         id="path953"
         style="fill:none;stroke:#262626;stroke-width:5.00250006;stroke-linecap:square;stroke-linejoin:round;stroke-miterlimit:10;stroke-dasharray:none;stroke-opacity:1"
         d="m 3525.82,2840.66 h -32.54" /><g
         transform="scale(10)"
         id="g955"><text
           id="text977"
           style="font-variant:normal;font-weight:normal;font-size:9.99975014px;font-family:Arial;-inkscape-font-specification:ArialMT;writing-mode:lr-tb;fill:#262626;fill-opacity:1;fill-rule:nonzero;stroke:none"
           transform="matrix(1,0,0,-1,17.0832,22.6898)"><tspan
             id="tspan957"
             y="0"
             x="0">1</tspan><tspan
             id="tspan959"
             y="-28.5828"
             x="-8.25 -2.6901391 0.089791499">1.5</tspan><tspan
             id="tspan961"
             y="-57.166401"
             x="0">2</tspan><tspan
             id="tspan963"
             y="-85.749603"
             x="-8.25 -2.6901391 0.089791499">2.5</tspan><tspan
             id="tspan965"
             y="-114.3328"
             x="0">3</tspan><tspan
             id="tspan967"
             y="-142.9164"
             x="-8.25 -2.6901391 0.089791499">3.5</tspan><tspan
             id="tspan969"
             y="-171.4996"
             x="0">4</tspan><tspan
             id="tspan971"
             y="-200.08279"
             x="-8.25 -2.6901391 0.089791499">4.5</tspan><tspan
             id="tspan973"
             y="-228.6664"
             x="0">5</tspan><tspan
             id="tspan975"
             y="-257.2496"
             x="-8.25 -2.6901391 0.089791499">5.5</tspan></text>
<text
           id="text981"
           style="font-variant:normal;font-weight:normal;font-size:11.00020027px;font-family:Arial;-inkscape-font-specification:ArialMT;writing-mode:lr-tb;fill:#262626;fill-opacity:1;fill-rule:nonzero;stroke:none"
           transform="matrix(0,1,1,0,5.8332,153.564)"><tspan
             id="tspan979"
             y="0"
             x="0">r</tspan></text>
</g><path
         id="path983"
         style="fill:none;stroke:#0000ff;stroke-width:7.5;stroke-linecap:butt;stroke-linejoin:miter;stroke-miterlimit:10;stroke-dasharray:none;stroke-opacity:1"
         d="m 235.469,335 70.703,-70.699 m -70.703,0 70.703,70.699" /><path
         id="path985"
         style="fill:none;stroke:#0000ff;stroke-width:7.5;stroke-linecap:butt;stroke-linejoin:miter;stroke-miterlimit:10;stroke-dasharray:none;stroke-opacity:1"
         d="m 467.969,377.191 70.703,-70.711 m -70.703,0 70.703,70.711" /><path
         id="path987"
         style="fill:none;stroke:#0000ff;stroke-width:7.5;stroke-linecap:butt;stroke-linejoin:miter;stroke-miterlimit:10;stroke-dasharray:none;stroke-opacity:1"
         d="m 700.469,424.648 70.703,-70.699 m -70.703,0 70.703,70.699" /><path
         id="path989"
         style="fill:none;stroke:#0000ff;stroke-width:7.5;stroke-linecap:butt;stroke-linejoin:miter;stroke-miterlimit:10;stroke-dasharray:none;stroke-opacity:1"
         d="m 932.969,478.281 70.701,-70.699 m -70.701,0 70.701,70.699" /><path
         id="path991"
         style="fill:none;stroke:#0000ff;stroke-width:7.5;stroke-linecap:butt;stroke-linejoin:miter;stroke-miterlimit:10;stroke-dasharray:none;stroke-opacity:1"
         d="m 1165.47,539.02 70.7,-70.7 m -70.7,0 70.7,70.7" /><path
         id="path993"
         style="fill:none;stroke:#0000ff;stroke-width:7.5;stroke-linecap:butt;stroke-linejoin:miter;stroke-miterlimit:10;stroke-dasharray:none;stroke-opacity:1"
         d="m 1397.97,608.16 70.7,-70.738 m -70.7,0 70.7,70.738" /><path
         id="path995"
         style="fill:none;stroke:#0000ff;stroke-width:7.5;stroke-linecap:butt;stroke-linejoin:miter;stroke-miterlimit:10;stroke-dasharray:none;stroke-opacity:1"
         d="m 1630.47,687.301 70.7,-70.699 m -70.7,0 70.7,70.699" /><path
         id="path997"
         style="fill:none;stroke:#0000ff;stroke-width:7.5;stroke-linecap:butt;stroke-linejoin:miter;stroke-miterlimit:10;stroke-dasharray:none;stroke-opacity:1"
         d="m 1862.97,778.91 70.7,-70.711 m -70.7,0 70.7,70.711" /><path
         id="path999"
         style="fill:none;stroke:#0000ff;stroke-width:7.5;stroke-linecap:butt;stroke-linejoin:miter;stroke-miterlimit:10;stroke-dasharray:none;stroke-opacity:1"
         d="m 2095.47,886.602 70.7,-70.704 m -70.7,0 70.7,70.704" /><path
         id="path1001"
         style="fill:none;stroke:#0000ff;stroke-width:7.5;stroke-linecap:butt;stroke-linejoin:miter;stroke-miterlimit:10;stroke-dasharray:none;stroke-opacity:1"
         d="m 2327.97,1016.05 70.7,-70.741 m -70.7,0 70.7,70.741" /><path
         id="path1003"
         style="fill:none;stroke:#0000ff;stroke-width:7.5;stroke-linecap:butt;stroke-linejoin:miter;stroke-miterlimit:10;stroke-dasharray:none;stroke-opacity:1"
         d="m 2560.47,1175.86 70.7,-70.7 m -70.7,0 70.7,70.7" /><path
         id="path1005"
         style="fill:none;stroke:#0000ff;stroke-width:7.5;stroke-linecap:butt;stroke-linejoin:miter;stroke-miterlimit:10;stroke-dasharray:none;stroke-opacity:1"
         d="m 2792.97,1379.88 70.7,-70.7 m -70.7,0 70.7,70.7" /><path
         id="path1007"
         style="fill:none;stroke:#0000ff;stroke-width:7.5;stroke-linecap:butt;stroke-linejoin:miter;stroke-miterlimit:10;stroke-dasharray:none;stroke-opacity:1"
         d="m 3025.47,1651.02 70.7,-70.71 m -70.7,0 70.7,70.71" /><path
         id="path1009"
         style="fill:none;stroke:#0000ff;stroke-width:7.5;stroke-linecap:butt;stroke-linejoin:miter;stroke-miterlimit:10;stroke-dasharray:none;stroke-opacity:1"
         d="m 3257.97,2030.35 70.7,-70.7 m -70.7,0 70.7,70.7" /><path
         id="path1011"
         style="fill:none;stroke:#0000ff;stroke-width:7.5;stroke-linecap:butt;stroke-linejoin:miter;stroke-miterlimit:10;stroke-dasharray:none;stroke-opacity:1"
         d="m 3490.47,2599.8 70.7,-70.7 m -70.7,0 70.7,70.7" /><path
         id="path1013"
         style="fill:none;stroke:#00ff00;stroke-width:7.5;stroke-linecap:butt;stroke-linejoin:miter;stroke-miterlimit:10;stroke-dasharray:none;stroke-opacity:1"
         d="m 320.82,299.648 c 0,27.622 -22.379,50 -50,50 -27.621,0 -50,-22.378 -50,-50 0,-27.617 22.379,-50 50,-50 27.621,0 50,22.383 50,50 z" /><path
         id="path1015"
         style="fill:none;stroke:#00ff00;stroke-width:7.5;stroke-linecap:butt;stroke-linejoin:miter;stroke-miterlimit:10;stroke-dasharray:none;stroke-opacity:1"
         d="m 553.32,341.84 c 0,27.609 -22.379,50 -50,50 -27.621,0 -50,-22.391 -50,-50 0,-27.621 22.379,-50 50,-50 27.621,0 50,22.379 50,50 z" /><path
         id="path1017"
         style="fill:none;stroke:#00ff00;stroke-width:7.5;stroke-linecap:butt;stroke-linejoin:miter;stroke-miterlimit:10;stroke-dasharray:none;stroke-opacity:1"
         d="m 785.82,389.301 c 0,27.609 -22.379,50 -50,50 -27.621,0 -50,-22.391 -50,-50 0,-27.621 22.379,-50 50,-50 27.621,0 50,22.379 50,50 z" /><path
         id="path1019"
         style="fill:none;stroke:#00ff00;stroke-width:7.5;stroke-linecap:butt;stroke-linejoin:miter;stroke-miterlimit:10;stroke-dasharray:none;stroke-opacity:1"
         d="m 1018.32,442.93 c 0,27.621 -22.379,50 -50,50 -27.621,0 -50,-22.379 -50,-50 0,-27.621 22.379,-50 50,-50 27.621,0 50,22.379 50,50 z" /><path
         id="path1021"
         style="fill:none;stroke:#00ff00;stroke-width:7.5;stroke-linecap:butt;stroke-linejoin:miter;stroke-miterlimit:10;stroke-dasharray:none;stroke-opacity:1"
         d="m 1250.82,503.672 c 0,27.617 -22.38,50 -50,50 -27.62,0 -50,-22.383 -50,-50 0,-27.621 22.38,-50 50,-50 27.62,0 50,22.379 50,50 z" /><path
         id="path1023"
         style="fill:none;stroke:#00ff00;stroke-width:7.5;stroke-linecap:butt;stroke-linejoin:miter;stroke-miterlimit:10;stroke-dasharray:none;stroke-opacity:1"
         d="m 1483.32,572.809 c 0,27.582 -22.38,50 -50,50 -27.62,0 -50,-22.418 -50,-50 0,-27.61 22.38,-50.039 50,-50.039 27.62,0 50,22.429 50,50.039 z" /><path
         id="path1025"
         style="fill:none;stroke:#00ff00;stroke-width:7.5;stroke-linecap:butt;stroke-linejoin:miter;stroke-miterlimit:10;stroke-dasharray:none;stroke-opacity:1"
         d="m 1715.82,651.949 c 0,27.621 -22.38,50 -50,50 -27.62,0 -50,-22.379 -50,-50 0,-27.609 22.38,-50 50,-50 27.62,0 50,22.391 50,50 z" /><path
         id="path1027"
         style="fill:none;stroke:#00ff00;stroke-width:7.5;stroke-linecap:butt;stroke-linejoin:miter;stroke-miterlimit:10;stroke-dasharray:none;stroke-opacity:1"
         d="m 1948.32,743.551 c 0,27.621 -22.38,50 -50,50 -27.62,0 -50,-22.379 -50,-50 0,-27.61 22.38,-50 50,-50 27.62,0 50,22.39 50,50 z" /><path
         id="path1029"
         style="fill:none;stroke:#00ff00;stroke-width:7.5;stroke-linecap:butt;stroke-linejoin:miter;stroke-miterlimit:10;stroke-dasharray:none;stroke-opacity:1"
         d="m 2180.82,851.25 c 0,27.621 -22.38,50 -50,50 -27.62,0 -50,-22.379 -50,-50 0,-27.621 22.38,-50 50,-50 27.62,0 50,22.379 50,50 z" /><path
         id="path1031"
         style="fill:none;stroke:#00ff00;stroke-width:7.5;stroke-linecap:butt;stroke-linejoin:miter;stroke-miterlimit:10;stroke-dasharray:none;stroke-opacity:1"
         d="m 2413.32,980.699 c 0,27.581 -22.38,50.001 -50,50.001 -27.62,0 -50,-22.42 -50,-50.001 0,-27.648 22.38,-50 50,-50 27.62,0 50,22.352 50,50 z" /><path
         id="path1033"
         style="fill:none;stroke:#00ff00;stroke-width:7.5;stroke-linecap:butt;stroke-linejoin:miter;stroke-miterlimit:10;stroke-dasharray:none;stroke-opacity:1"
         d="m 2645.82,1140.51 c 0,27.61 -22.38,50 -50,50 -27.62,0 -50,-22.39 -50,-50 0,-27.62 22.38,-50 50,-50 27.62,0 50,22.38 50,50 z" /><path
         id="path1035"
         style="fill:none;stroke:#00ff00;stroke-width:7.5;stroke-linecap:butt;stroke-linejoin:miter;stroke-miterlimit:10;stroke-dasharray:none;stroke-opacity:1"
         d="m 2878.32,1344.53 c 0,27.62 -22.38,50 -50,50 -27.62,0 -50,-22.38 -50,-50 0,-27.62 22.38,-50 50,-50 27.62,0 50,22.38 50,50 z" /><path
         id="path1037"
         style="fill:none;stroke:#00ff00;stroke-width:7.5;stroke-linecap:butt;stroke-linejoin:miter;stroke-miterlimit:10;stroke-dasharray:none;stroke-opacity:1"
         d="m 3110.82,1615.66 c 0,27.62 -22.38,50 -50,50 -27.62,0 -50,-22.38 -50,-50 0,-27.61 22.38,-50 50,-50 27.62,0 50,22.39 50,50 z" /><path
         id="path1039"
         style="fill:none;stroke:#00ff00;stroke-width:7.5;stroke-linecap:butt;stroke-linejoin:miter;stroke-miterlimit:10;stroke-dasharray:none;stroke-opacity:1"
         d="m 3343.32,1995 c 0,27.62 -22.38,50 -50,50 -27.62,0 -50,-22.38 -50,-50 0,-27.62 22.38,-50 50,-50 27.62,0 50,22.38 50,50 z" /><path
         id="path1041"
         style="fill:none;stroke:#00ff00;stroke-width:7.5;stroke-linecap:butt;stroke-linejoin:miter;stroke-miterlimit:10;stroke-dasharray:none;stroke-opacity:1"
         d="m 3575.82,2564.45 c 0,27.62 -22.38,50 -50,50 -27.62,0 -50,-22.38 -50,-50 0,-27.61 22.38,-50 50,-50 27.62,0 50,22.39 50,50 z" /><path
         id="path1043"
         style="fill:none;stroke:#ff0000;stroke-width:7.5;stroke-linecap:butt;stroke-linejoin:miter;stroke-miterlimit:10;stroke-dasharray:none;stroke-opacity:1"
         d="m 270.82,366.332 -57.691,-100 h 115.422 z" /><path
         id="path1045"
         style="fill:none;stroke:#ff0000;stroke-width:7.5;stroke-linecap:butt;stroke-linejoin:miter;stroke-miterlimit:10;stroke-dasharray:none;stroke-opacity:1"
         d="M 503.32,408.48 445.629,308.52 H 561.051 Z" /><path
         id="path1047"
         style="fill:none;stroke:#ff0000;stroke-width:7.5;stroke-linecap:butt;stroke-linejoin:miter;stroke-miterlimit:10;stroke-dasharray:none;stroke-opacity:1"
         d="m 735.82,455.98 -57.691,-100 h 115.422 z" /><path
         id="path1049"
         style="fill:none;stroke:#ff0000;stroke-width:7.5;stroke-linecap:butt;stroke-linejoin:miter;stroke-miterlimit:10;stroke-dasharray:none;stroke-opacity:1"
         d="m 968.32,509.609 -57.691,-100 h 115.421 z" /><path
         id="path1051"
         style="fill:none;stroke:#ff0000;stroke-width:7.5;stroke-linecap:butt;stroke-linejoin:miter;stroke-miterlimit:10;stroke-dasharray:none;stroke-opacity:1"
         d="m 1200.82,570.352 -57.69,-100 h 115.42 z" /><path
         id="path1053"
         style="fill:none;stroke:#ff0000;stroke-width:7.5;stroke-linecap:butt;stroke-linejoin:miter;stroke-miterlimit:10;stroke-dasharray:none;stroke-opacity:1"
         d="m 1433.32,639.449 -57.69,-100 h 115.42 z" /><path
         id="path1055"
         style="fill:none;stroke:#ff0000;stroke-width:7.5;stroke-linecap:butt;stroke-linejoin:miter;stroke-miterlimit:10;stroke-dasharray:none;stroke-opacity:1"
         d="m 1665.82,718.59 -57.69,-99.961 h 115.42 z" /><path
         id="path1057"
         style="fill:none;stroke:#ff0000;stroke-width:7.5;stroke-linecap:butt;stroke-linejoin:miter;stroke-miterlimit:10;stroke-dasharray:none;stroke-opacity:1"
         d="m 1898.32,810.199 -57.69,-99.969 h 115.42 z" /><path
         id="path1059"
         style="fill:none;stroke:#ff0000;stroke-width:7.5;stroke-linecap:butt;stroke-linejoin:miter;stroke-miterlimit:10;stroke-dasharray:none;stroke-opacity:1"
         d="m 2130.82,917.891 -57.69,-99.961 h 115.42 z" /><path
         id="path1061"
         style="fill:none;stroke:#ff0000;stroke-width:7.5;stroke-linecap:butt;stroke-linejoin:miter;stroke-miterlimit:10;stroke-dasharray:none;stroke-opacity:1"
         d="m 2363.32,1047.34 -57.69,-100 h 115.42 z" /><path
         id="path1063"
         style="fill:none;stroke:#ff0000;stroke-width:7.5;stroke-linecap:butt;stroke-linejoin:miter;stroke-miterlimit:10;stroke-dasharray:none;stroke-opacity:1"
         d="m 2595.82,1207.15 -57.69,-99.96 h 115.42 z" /><path
         id="path1065"
         style="fill:none;stroke:#ff0000;stroke-width:7.5;stroke-linecap:butt;stroke-linejoin:miter;stroke-miterlimit:10;stroke-dasharray:none;stroke-opacity:1"
         d="m 2828.32,1411.17 -57.69,-99.96 h 115.42 z" /><path
         id="path1067"
         style="fill:none;stroke:#ff0000;stroke-width:7.5;stroke-linecap:butt;stroke-linejoin:miter;stroke-miterlimit:10;stroke-dasharray:none;stroke-opacity:1"
         d="m 3060.82,1682.3 -57.69,-99.96 h 115.42 z" /><path
         id="path1069"
         style="fill:none;stroke:#ff0000;stroke-width:7.5;stroke-linecap:butt;stroke-linejoin:miter;stroke-miterlimit:10;stroke-dasharray:none;stroke-opacity:1"
         d="m 3293.32,2061.64 -57.69,-99.96 h 115.42 z" /><path
         id="path1071"
         style="fill:none;stroke:#ff0000;stroke-width:7.5;stroke-linecap:butt;stroke-linejoin:miter;stroke-miterlimit:10;stroke-dasharray:none;stroke-opacity:1"
         d="m 3525.82,2631.09 -57.69,-99.96 h 115.42 z" /><path
         id="path1073"
         style="fill:none;stroke:#000000;stroke-width:5.00250006;stroke-linecap:butt;stroke-linejoin:round;stroke-miterlimit:10;stroke-dasharray:none;stroke-opacity:1"
         d="m 270.82,331.68 232.5,37.34 232.5,42.031 232.5,47.66 232.5,54.449 232.5,62.82 232.5,73.282 232.5,86.597 232.5,103.942 232.5,127.039 232.5,158.82 232.5,204.14 232.5,272.23 232.5,381.13 232.5,571.64" /><path
         id="path1075"
         style="fill:#ffffff;fill-opacity:1;fill-rule:nonzero;stroke:none"
         d="m 353.32,2240.66 h 832.5 v 517.5 h -832.5 z" /><g
         transform="scale(10)"
         id="g1077"><text
           id="text1081"
           style="font-variant:normal;font-weight:normal;font-size:9px;font-family:Arial;-inkscape-font-specification:ArialMT;writing-mode:lr-tb;fill:#000000;fill-opacity:1;fill-rule:nonzero;stroke:none"
           transform="matrix(1,0,0,-1,70.5832,264.619)"><tspan
             id="tspan1079"
             y="0"
             x="0 6.0029998 8.5050001 13.761 16.263 19.26 24.264 26.766001">K = -0.4</tspan></text>
</g><path
         id="path1083"
         style="fill:none;stroke:#0000ff;stroke-width:7.5;stroke-linecap:butt;stroke-linejoin:miter;stroke-miterlimit:10;stroke-dasharray:none;stroke-opacity:1"
         d="m 497.969,2719.02 70.703,-70.7 m -70.703,0 70.703,70.7" /><g
         transform="scale(10)"
         id="g1085"><text
           id="text1089"
           style="font-variant:normal;font-weight:normal;font-size:9px;font-family:Arial;-inkscape-font-specification:ArialMT;writing-mode:lr-tb;fill:#000000;fill-opacity:1;fill-rule:nonzero;stroke:none"
           transform="matrix(1,0,0,-1,70.5832,252.333)"><tspan
             id="tspan1087"
             y="0"
             x="0 6.0029998 8.5050001 13.761 16.263 19.26 24.264 26.766001">K = -0.5</tspan></text>
</g><path
         id="path1091"
         style="fill:none;stroke:#00ff00;stroke-width:7.5;stroke-linecap:butt;stroke-linejoin:miter;stroke-miterlimit:10;stroke-dasharray:none;stroke-opacity:1"
         d="m 583.32,2560.82 c 0,27.62 -22.379,50 -50,50 -27.621,0 -50,-22.38 -50,-50 0,-27.62 22.379,-50 50,-50 27.621,0 50,22.38 50,50 z" /><g
         transform="scale(10)"
         id="g1093"><text
           id="text1097"
           style="font-variant:normal;font-weight:normal;font-size:9px;font-family:Arial;-inkscape-font-specification:ArialMT;writing-mode:lr-tb;fill:#000000;fill-opacity:1;fill-rule:nonzero;stroke:none"
           transform="matrix(1,0,0,-1,70.5832,240.046)"><tspan
             id="tspan1095"
             y="0"
             x="0 6.0029998 8.5050001 13.761 16.263 19.26 24.264 26.766001">K = -0.6</tspan></text>
</g><path
         id="path1099"
         style="fill:none;stroke:#ff0000;stroke-width:7.5;stroke-linecap:butt;stroke-linejoin:miter;stroke-miterlimit:10;stroke-dasharray:none;stroke-opacity:1"
         d="m 533.32,2504.61 -57.691,-99.96 h 115.422 z" /><g
         transform="scale(10)"
         id="g1101"><text
           id="text1105"
           style="font-variant:normal;font-weight:normal;font-size:9px;font-family:Arial;-inkscape-font-specification:ArialMT;writing-mode:lr-tb;fill:#000000;fill-opacity:1;fill-rule:nonzero;stroke:none"
           transform="matrix(1,0,0,-1,70.5832,227.761)"><tspan
             id="tspan1103"
             y="0"
             x="0 5.4990001 10.503 15.507 20.511 23.507999 28.511999 31.014 33.012001 37.512001 42.515999">Theoretical</tspan></text>
</g><path
         id="path1107"
         style="fill:none;stroke:#000000;stroke-width:5.00250006;stroke-linecap:butt;stroke-linejoin:round;stroke-miterlimit:10;stroke-dasharray:none;stroke-opacity:1"
         d="m 383.32,2315.12 h 300" /><path
         id="path1109"
         style="fill:none;stroke:#262626;stroke-width:5.00250006;stroke-linecap:butt;stroke-linejoin:miter;stroke-miterlimit:10;stroke-dasharray:none;stroke-opacity:1"
         d="m 353.32,2240.66 h 832.5 v 517.5 h -832.5 z" /></g></g></svg>